# Blender 4.0.1
# www.blender.org
mtllib heart_6.mtl
o hearts06
v -0.036000 -0.003837 0.055213
v -0.036000 -0.003837 -0.056788
v 0.036000 -0.003837 -0.056788
v 0.036000 -0.003837 0.055213
v 0.036000 -0.002837 0.055213
v 0.036000 -0.002837 -0.056788
v -0.036000 -0.002837 -0.056788
v -0.036000 -0.002837 0.055213
v 0.036000 -0.003837 -0.058787
v -0.036000 -0.003837 -0.058787
v -0.036000 -0.003837 0.057213
v 0.036000 -0.003837 0.057213
v 0.036000 -0.002837 0.057213
v -0.036000 -0.002837 0.057213
v -0.036000 -0.002837 -0.058787
v 0.036000 -0.002837 -0.058787
v -0.036000 -0.002937 -0.060787
v -0.035987 -0.002837 -0.060687
v 0.036000 -0.002937 -0.060787
v 0.035987 -0.002837 -0.060687
v -0.040000 -0.003737 -0.056788
v -0.039900 -0.003837 -0.056774
v -0.040000 -0.003738 0.055213
v -0.039900 -0.003837 0.055200
v -0.036000 -0.003737 -0.060787
v -0.035987 -0.003837 -0.060687
v 0.036000 -0.003737 -0.060787
v 0.035987 -0.003837 -0.060687
v 0.040000 -0.003737 -0.056788
v 0.039900 -0.003837 -0.056774
v 0.040000 -0.003738 0.055213
v 0.039900 -0.003837 0.055200
v -0.036000 -0.003738 0.059213
v -0.035987 -0.003837 0.059113
v 0.036000 -0.003738 0.059213
v 0.035987 -0.003837 0.059113
v -0.040000 -0.002937 -0.056788
v -0.039900 -0.002837 -0.056774
v -0.040000 -0.002937 0.055213
v -0.039900 -0.002837 0.055200
v -0.036000 -0.002937 0.059213
v -0.035987 -0.002837 0.059113
v 0.036000 -0.002937 0.059213
v 0.035987 -0.002837 0.059113
v 0.040000 -0.002937 -0.056788
v 0.039900 -0.002837 -0.056774
v 0.040000 -0.002937 0.055213
v 0.039900 -0.002837 0.055200
v -0.039464 -0.002937 -0.058787
v -0.039375 -0.002837 -0.058736
v -0.039464 -0.003737 -0.058787
v -0.039375 -0.003837 -0.058736
v -0.038000 -0.002937 -0.060251
v -0.037948 -0.002837 -0.060162
v -0.037948 -0.003837 -0.060162
v -0.038000 -0.003737 -0.060251
v 0.038000 -0.002937 -0.060251
v 0.037948 -0.002837 -0.060162
v 0.037948 -0.003837 -0.060162
v 0.038000 -0.003737 -0.060251
v 0.039464 -0.002937 -0.058787
v 0.039375 -0.002837 -0.058736
v 0.039464 -0.003737 -0.058787
v 0.039375 -0.003837 -0.058736
v -0.039464 -0.003738 0.057213
v -0.039375 -0.003837 0.057161
v -0.039464 -0.002937 0.057213
v -0.039375 -0.002837 0.057161
v -0.038000 -0.003738 0.058677
v -0.037948 -0.003837 0.058587
v -0.037948 -0.002837 0.058587
v -0.038000 -0.002937 0.058677
v 0.038000 -0.003738 0.058677
v 0.037948 -0.003837 0.058587
v 0.037948 -0.002837 0.058587
v 0.038000 -0.002937 0.058677
v 0.039464 -0.003738 0.057213
v 0.039375 -0.003837 0.057161
v 0.039464 -0.002937 0.057213
v 0.039375 -0.002837 0.057161
v -0.036000 -0.003337 -0.060787
v 0.036000 -0.003337 -0.060787
v 0.038000 -0.003337 -0.060251
v 0.039464 -0.003337 -0.058787
v 0.040000 -0.003337 -0.056788
v 0.040000 -0.003337 0.055213
v 0.039464 -0.003337 0.057213
v 0.038000 -0.003337 0.058677
v 0.036000 -0.003337 0.059213
v -0.036000 -0.003337 0.059213
v -0.038000 -0.003337 0.058677
v -0.039464 -0.003337 0.057213
v -0.040000 -0.003337 0.055213
v -0.040000 -0.003337 -0.056788
v -0.039464 -0.003337 -0.058787
v -0.038000 -0.003337 -0.060251
vn -0.0000 1.0000 -0.0000
vn -0.0000 -1.0000 -0.0000
vn -0.0071 0.1872 -0.9823
vn -0.0004 0.9986 -0.0526
vn 0.0004 0.9986 -0.0526
vn 0.0071 0.1872 -0.9823
vn -0.4916 0.1820 -0.8516
vn -0.0294 0.9983 -0.0510
vn 0.0295 0.9983 -0.0510
vn 0.4916 0.1820 -0.8516
vn -0.9823 -0.1871 -0.0046
vn -0.0265 -0.9996 -0.0001
vn -0.0265 -0.9996 0.0001
vn -0.9823 -0.1871 0.0046
vn -0.8516 -0.1820 -0.4916
vn -0.0348 -0.9992 -0.0201
vn -0.0349 -0.9992 0.0199
vn -0.8516 -0.1820 0.4916
vn -0.0071 -0.1872 -0.9823
vn -0.0004 -0.9986 -0.0526
vn -0.0293 -0.9983 -0.0510
vn -0.4916 -0.1820 -0.8516
vn 0.0071 -0.1872 -0.9823
vn 0.0004 -0.9986 -0.0526
vn 0.4917 -0.1820 -0.8516
vn 0.0294 -0.9983 -0.0510
vn 0.9823 -0.1871 -0.0046
vn 0.0265 -0.9996 -0.0001
vn 0.0348 -0.9992 -0.0201
vn 0.8516 -0.1820 -0.4916
vn 0.9823 -0.1871 0.0046
vn 0.0265 -0.9996 0.0001
vn 0.8516 -0.1820 0.4917
vn 0.0348 -0.9992 0.0201
vn -0.0071 -0.1872 0.9823
vn -0.0004 -0.9986 0.0526
vn 0.0004 -0.9986 0.0526
vn 0.0071 -0.1872 0.9823
vn -0.4916 -0.1820 0.8516
vn -0.0294 -0.9983 0.0510
vn 0.0295 -0.9983 0.0510
vn 0.4916 -0.1820 0.8516
vn -0.9823 0.1871 -0.0046
vn -0.0265 0.9996 -0.0001
vn -0.0348 0.9992 -0.0201
vn -0.8516 0.1820 -0.4916
vn -0.9823 0.1871 0.0046
vn -0.0265 0.9996 0.0001
vn -0.8516 0.1820 0.4916
vn -0.0348 0.9992 0.0201
vn -0.0071 0.1872 0.9823
vn -0.0004 0.9986 0.0526
vn -0.0293 0.9983 0.0511
vn -0.4916 0.1820 0.8516
vn 0.0071 0.1872 0.9823
vn 0.0004 0.9986 0.0526
vn 0.4917 0.1820 0.8516
vn 0.0294 0.9983 0.0510
vn 0.9823 0.1871 -0.0046
vn 0.0265 0.9996 -0.0001
vn 0.0265 0.9996 0.0001
vn 0.9823 0.1871 0.0046
vn 0.8516 0.1820 -0.4917
vn 0.0348 0.9992 -0.0201
vn 0.0348 0.9992 0.0201
vn 0.8516 0.1820 0.4916
vn -0.0073 -0.0000 -1.0000
vn 0.0073 -0.0000 -1.0000
vn 0.0073 -0.0000 1.0000
vn -0.0073 -0.0000 1.0000
vn 1.0000 -0.0000 -0.0047
vn 1.0000 -0.0000 0.0047
vn -1.0000 -0.0000 0.0047
vn -1.0000 -0.0000 -0.0047
vn -0.8660 -0.0000 -0.5000
vn -0.5000 -0.0000 -0.8660
vn 0.5000 -0.0000 -0.8660
vn 0.8660 -0.0000 -0.5000
vn -0.8660 -0.0000 0.5000
vn -0.5000 -0.0000 0.8660
vn 0.5000 -0.0000 0.8660
vn 0.8660 -0.0000 0.5000
vt 0.400817 0.423022
vt 0.400820 0.335524
vt 0.457070 0.335520
vt 0.457072 0.423026
vt 0.452219 0.896975
vt 0.452235 0.984474
vt 0.395985 0.984489
vt 0.395965 0.896984
vt 0.395966 0.895422
vt 0.452217 0.895412
vt 0.452235 0.986036
vt 0.395987 0.986052
vt 0.457070 0.424589
vt 0.400818 0.424584
vt 0.400821 0.333961
vt 0.457068 0.333958
vt 0.457081 0.332363
vt 0.457068 0.332473
vt 0.400821 0.332476
vt 0.400808 0.332366
vt 0.458639 0.332808
vt 0.458581 0.332904
vt 0.399307 0.332907
vt 0.399249 0.332811
vt 0.392807 0.896969
vt 0.392917 0.896982
vt 0.392938 0.984492
vt 0.392828 0.984504
vt 0.393262 0.895413
vt 0.393358 0.895471
vt 0.393378 0.986003
vt 0.393282 0.986061
vt 0.395954 0.893826
vt 0.395966 0.893937
vt 0.394453 0.894367
vt 0.394395 0.894271
vt 0.452230 0.893817
vt 0.452218 0.893928
vt 0.453788 0.894262
vt 0.453730 0.894358
vt 0.455377 0.896960
vt 0.455266 0.896972
vt 0.454827 0.895461
vt 0.454922 0.895403
vt 0.455392 0.984489
vt 0.455282 0.984476
vt 0.454938 0.986044
vt 0.454842 0.985986
vt 0.395975 0.987647
vt 0.395987 0.987536
vt 0.452235 0.987520
vt 0.452248 0.987631
vt 0.394416 0.987202
vt 0.394474 0.987106
vt 0.453748 0.987090
vt 0.453806 0.987186
vt 0.460227 0.335505
vt 0.460116 0.335518
vt 0.459677 0.334007
vt 0.459773 0.333949
vt 0.460230 0.423041
vt 0.460119 0.423029
vt 0.459775 0.424598
vt 0.459679 0.424540
vt 0.457082 0.426184
vt 0.457070 0.426073
vt 0.458584 0.425644
vt 0.458641 0.425739
vt 0.400805 0.426179
vt 0.400818 0.426069
vt 0.399247 0.425734
vt 0.399305 0.425638
vt 0.397662 0.335509
vt 0.397772 0.335521
vt 0.397771 0.423024
vt 0.397660 0.423037
vt 0.398117 0.333953
vt 0.398212 0.334011
vt 0.398210 0.424535
vt 0.398114 0.424593
vt 0.395938 0.893514
vt 0.452246 0.893506
vt 0.452264 0.987943
vt 0.395959 0.987959
vt 0.455689 0.896944
vt 0.455704 0.984504
vt 0.392515 0.984520
vt 0.392495 0.896954
vt 0.392998 0.895255
vt 0.394233 0.894009
vt 0.453946 0.893998
vt 0.455184 0.895241
vt 0.393020 0.986223
vt 0.394258 0.987466
vt 0.453967 0.987448
vt 0.455202 0.986203
vt 0.400792 0.332054
vt 0.457096 0.332051
vt 0.399088 0.332549
vt 0.397852 0.333794
vt 0.397350 0.335494
vt 0.397348 0.423052
vt 0.397852 0.424754
vt 0.399089 0.425998
vt 0.400789 0.426491
vt 0.457098 0.426496
vt 0.458803 0.426001
vt 0.460039 0.424756
vt 0.460542 0.423056
vt 0.460539 0.335490
vt 0.460035 0.333787
vt 0.458797 0.332544
s 1
usemtl playingCards_Mat
f 5/1/1 6/2/1 7/3/1 8/4/1
f 3/5/2 4/6/2 1/7/2 2/8/2
f 10/9/2 9/10/2 3/5/2 2/8/2
f 4/6/2 12/11/2 11/12/2 1/7/2
f 14/13/1 13/14/1 5/1/1 8/4/1
f 16/15/1 15/16/1 7/3/1 6/2/1
f 17/17/3 18/18/4 20/19/5 19/20/6
f 18/18/4 17/17/3 53/21/7 54/22/8
f 19/20/6 20/19/5 58/23/9 57/24/10
f 21/25/11 22/26/12 24/27/13 23/28/14
f 22/26/12 21/25/11 51/29/15 52/30/16
f 23/28/14 24/27/13 66/31/17 65/32/18
f 25/33/19 26/34/20 55/35/21 56/36/22
f 26/34/20 25/33/19 27/37/23 28/38/24
f 28/38/24 27/37/23 60/39/25 59/40/26
f 29/41/27 30/42/28 64/43/29 63/44/30
f 30/42/28 29/41/27 31/45/31 32/46/32
f 32/46/32 31/45/31 77/47/33 78/48/34
f 33/49/35 34/50/36 36/51/37 35/52/38
f 34/50/36 33/49/35 69/53/39 70/54/40
f 35/52/38 36/51/37 74/55/41 73/56/42
f 37/57/43 38/58/44 50/59/45 49/60/46
f 38/58/44 37/57/43 39/61/47 40/62/48
f 40/62/48 39/61/47 67/63/49 68/64/50
f 41/65/51 42/66/52 71/67/53 72/68/54
f 42/66/52 41/65/51 43/69/55 44/70/56
f 44/70/56 43/69/55 76/71/57 75/72/58
f 45/73/59 46/74/60 48/75/61 47/76/62
f 46/74/60 45/73/59 61/77/63 62/78/64
f 47/76/62 48/75/61 80/79/65 79/80/66
f 49/60/46 50/59/45 54/22/8 53/21/7
f 52/30/16 51/29/15 56/36/22 55/35/21
f 57/24/10 58/23/9 62/78/64 61/77/63
f 59/40/26 60/39/25 63/44/30 64/43/29
f 65/32/18 66/31/17 70/54/40 69/53/39
f 68/64/50 67/63/49 72/68/54 71/67/53
f 73/56/42 74/55/41 78/48/34 77/47/33
f 75/72/58 76/71/57 79/80/66 80/79/65
f 25/33/19 81/81/67 82/82/68 27/37/23
f 89/83/69 90/84/70 33/49/35 35/52/38
f 29/41/27 85/85/71 86/86/72 31/45/31
f 23/28/14 93/87/73 94/88/74 21/25/11
f 94/88/74 95/89/75 51/29/15 21/25/11
f 95/89/75 96/90/76 56/36/22 51/29/15
f 96/90/76 81/81/67 25/33/19 56/36/22
f 82/82/68 83/91/77 60/39/25 27/37/23
f 83/91/77 84/92/78 63/44/30 60/39/25
f 84/92/78 85/85/71 29/41/27 63/44/30
f 23/28/14 65/32/18 92/93/79 93/87/73
f 65/32/18 69/53/39 91/94/80 92/93/79
f 69/53/39 33/49/35 90/84/70 91/94/80
f 35/52/38 73/56/42 88/95/81 89/83/69
f 73/56/42 77/47/33 87/96/82 88/95/81
f 77/47/33 31/45/31 86/86/72 87/96/82
f 11/12/2 12/11/2 36/51/37 34/50/36
f 28/38/24 9/10/2 10/9/2 26/34/20
f 66/31/17 11/12/2 34/50/36 70/54/40
f 2/8/2 1/7/2 24/27/13 22/26/12
f 26/34/20 10/9/2 52/30/16 55/35/21
f 64/43/29 9/10/2 28/38/24 59/40/26
f 32/46/32 4/6/2 3/5/2 30/42/28
f 78/48/34 74/55/41 36/51/37 12/11/2
f 18/18/4 15/16/1 16/15/1 20/19/5
f 44/70/56 13/14/1 14/13/1 42/66/52
f 80/79/65 13/14/1 44/70/56 75/72/58
f 48/75/61 46/74/60 6/2/1 5/1/1
f 20/19/5 16/15/1 62/78/64 58/23/9
f 50/59/45 15/16/1 18/18/4 54/22/8
f 8/4/1 7/3/1 38/58/44 40/62/48
f 42/66/52 14/13/1 68/64/50 71/67/53
f 30/42/28 3/5/2 9/10/2 64/43/29
f 52/30/16 10/9/2 2/8/2 22/26/12
f 1/7/2 11/12/2 66/31/17 24/27/13
f 78/48/34 12/11/2 4/6/2 32/46/32
f 48/75/61 5/1/1 13/14/1 80/79/65
f 68/64/50 14/13/1 8/4/1 40/62/48
f 38/58/44 7/3/1 15/16/1 50/59/45
f 62/78/64 16/15/1 6/2/1 46/74/60
f 82/97/68 81/98/67 17/17/3 19/20/6
f 19/20/6 57/24/10 83/99/77 82/97/68
f 57/24/10 61/77/63 84/100/78 83/99/77
f 61/77/63 45/73/59 85/101/71 84/100/78
f 86/102/72 85/101/71 45/73/59 47/76/62
f 87/103/82 86/102/72 47/76/62 79/80/66
f 88/104/81 87/103/82 79/80/66 76/71/57
f 89/105/69 88/104/81 76/71/57 43/69/55
f 41/65/51 90/106/70 89/105/69 43/69/55
f 91/107/80 90/106/70 41/65/51 72/68/54
f 92/108/79 91/107/80 72/68/54 67/63/49
f 93/109/73 92/108/79 67/63/49 39/61/47
f 94/110/74 93/109/73 39/61/47 37/57/43
f 37/57/43 49/60/46 95/111/75 94/110/74
f 49/60/46 53/21/7 96/112/76 95/111/75
f 53/21/7 17/17/3 81/98/67 96/112/76
