# Blender 4.0.1
# www.blender.org
mtllib spade_7.mtl
o spades07
v -0.036000 -0.003837 0.056103
v -0.036000 -0.003837 -0.055897
v 0.036000 -0.003837 -0.055897
v 0.036000 -0.003837 0.056103
v 0.036000 -0.002837 0.056103
v 0.036000 -0.002837 -0.055897
v -0.036000 -0.002837 -0.055897
v -0.036000 -0.002837 0.056103
v 0.036000 -0.003837 -0.057897
v -0.036000 -0.003837 -0.057897
v -0.036000 -0.003837 0.058103
v 0.036000 -0.003837 0.058103
v 0.036000 -0.002837 0.058103
v -0.036000 -0.002837 0.058103
v -0.036000 -0.002837 -0.057897
v 0.036000 -0.002837 -0.057897
v -0.036000 -0.002937 -0.059897
v -0.035987 -0.002837 -0.059797
v 0.036000 -0.002937 -0.059897
v 0.035987 -0.002837 -0.059797
v -0.040000 -0.003737 -0.055897
v -0.039900 -0.003837 -0.055884
v -0.040000 -0.003738 0.056103
v -0.039900 -0.003837 0.056090
v -0.036000 -0.003737 -0.059897
v -0.035987 -0.003837 -0.059797
v 0.036000 -0.003737 -0.059897
v 0.035987 -0.003837 -0.059797
v 0.040000 -0.003737 -0.055897
v 0.039900 -0.003837 -0.055884
v 0.040000 -0.003738 0.056103
v 0.039900 -0.003837 0.056090
v -0.036000 -0.003738 0.060103
v -0.035987 -0.003837 0.060003
v 0.036000 -0.003738 0.060103
v 0.035987 -0.003837 0.060003
v -0.040000 -0.002937 -0.055897
v -0.039900 -0.002837 -0.055884
v -0.040000 -0.002937 0.056103
v -0.039900 -0.002837 0.056090
v -0.036000 -0.002937 0.060103
v -0.035987 -0.002837 0.060003
v 0.036000 -0.002937 0.060103
v 0.035987 -0.002837 0.060003
v 0.040000 -0.002937 -0.055897
v 0.039900 -0.002837 -0.055884
v 0.040000 -0.002937 0.056103
v 0.039900 -0.002837 0.056090
v -0.039464 -0.002937 -0.057897
v -0.039375 -0.002837 -0.057846
v -0.039464 -0.003737 -0.057897
v -0.039375 -0.003837 -0.057846
v -0.038000 -0.002937 -0.059361
v -0.037948 -0.002837 -0.059272
v -0.037948 -0.003837 -0.059272
v -0.038000 -0.003737 -0.059361
v 0.038000 -0.002937 -0.059361
v 0.037948 -0.002837 -0.059272
v 0.037948 -0.003837 -0.059272
v 0.038000 -0.003737 -0.059361
v 0.039464 -0.002937 -0.057897
v 0.039375 -0.002837 -0.057846
v 0.039464 -0.003737 -0.057897
v 0.039375 -0.003837 -0.057846
v -0.039464 -0.003738 0.058103
v -0.039375 -0.003837 0.058051
v -0.039464 -0.002937 0.058103
v -0.039375 -0.002837 0.058051
v -0.038000 -0.003738 0.059567
v -0.037948 -0.003837 0.059477
v -0.037948 -0.002837 0.059477
v -0.038000 -0.002937 0.059567
v 0.038000 -0.003738 0.059567
v 0.037948 -0.003837 0.059477
v 0.037948 -0.002837 0.059477
v 0.038000 -0.002937 0.059567
v 0.039464 -0.003738 0.058103
v 0.039375 -0.003837 0.058051
v 0.039464 -0.002937 0.058103
v 0.039375 -0.002837 0.058051
v -0.036000 -0.003337 -0.059897
v 0.036000 -0.003337 -0.059897
v 0.038000 -0.003337 -0.059361
v 0.039464 -0.003337 -0.057897
v 0.040000 -0.003337 -0.055897
v 0.040000 -0.003337 0.056103
v 0.039464 -0.003337 0.058103
v 0.038000 -0.003337 0.059567
v 0.036000 -0.003337 0.060103
v -0.036000 -0.003337 0.060103
v -0.038000 -0.003337 0.059567
v -0.039464 -0.003337 0.058103
v -0.040000 -0.003337 0.056103
v -0.040000 -0.003337 -0.055897
v -0.039464 -0.003337 -0.057897
v -0.038000 -0.003337 -0.059361
vn -0.0000 1.0000 -0.0000
vn -0.0000 -1.0000 -0.0000
vn -0.0071 0.1872 -0.9823
vn -0.0004 0.9986 -0.0526
vn 0.0004 0.9986 -0.0526
vn 0.0071 0.1872 -0.9823
vn -0.4916 0.1820 -0.8516
vn -0.0294 0.9983 -0.0510
vn 0.0295 0.9983 -0.0510
vn 0.4916 0.1820 -0.8516
vn -0.9823 -0.1871 -0.0046
vn -0.0265 -0.9996 -0.0001
vn -0.0265 -0.9996 0.0001
vn -0.9823 -0.1871 0.0046
vn -0.8516 -0.1820 -0.4916
vn -0.0348 -0.9992 -0.0201
vn -0.0349 -0.9992 0.0199
vn -0.8516 -0.1820 0.4916
vn -0.0071 -0.1872 -0.9823
vn -0.0004 -0.9986 -0.0526
vn -0.0293 -0.9983 -0.0510
vn -0.4916 -0.1820 -0.8516
vn 0.0071 -0.1872 -0.9823
vn 0.0004 -0.9986 -0.0526
vn 0.4917 -0.1820 -0.8516
vn 0.0294 -0.9983 -0.0510
vn 0.9823 -0.1871 -0.0046
vn 0.0265 -0.9996 -0.0001
vn 0.0348 -0.9992 -0.0201
vn 0.8516 -0.1820 -0.4916
vn 0.9823 -0.1871 0.0046
vn 0.0265 -0.9996 0.0001
vn 0.8516 -0.1820 0.4917
vn 0.0348 -0.9992 0.0201
vn -0.0071 -0.1872 0.9823
vn -0.0004 -0.9986 0.0526
vn 0.0004 -0.9986 0.0526
vn 0.0071 -0.1872 0.9823
vn -0.4916 -0.1820 0.8516
vn -0.0294 -0.9983 0.0510
vn 0.0295 -0.9983 0.0510
vn 0.4916 -0.1820 0.8516
vn -0.9823 0.1871 -0.0046
vn -0.0265 0.9996 -0.0001
vn -0.0348 0.9992 -0.0201
vn -0.8516 0.1820 -0.4916
vn -0.9823 0.1871 0.0046
vn -0.0265 0.9996 0.0001
vn -0.8516 0.1820 0.4916
vn -0.0348 0.9992 0.0201
vn -0.0071 0.1872 0.9823
vn -0.0004 0.9986 0.0526
vn -0.0293 0.9983 0.0511
vn -0.4916 0.1820 0.8516
vn 0.0071 0.1872 0.9823
vn 0.0004 0.9986 0.0526
vn 0.4917 0.1820 0.8516
vn 0.0294 0.9983 0.0510
vn 0.9823 0.1871 -0.0046
vn 0.0265 0.9996 -0.0001
vn 0.0265 0.9996 0.0001
vn 0.9823 0.1871 0.0046
vn 0.8516 0.1820 -0.4917
vn 0.0348 0.9992 -0.0201
vn 0.0348 0.9992 0.0201
vn 0.8516 0.1820 0.4916
vn -0.0073 -0.0000 -1.0000
vn 0.0073 -0.0000 -1.0000
vn 0.0073 -0.0000 1.0000
vn -0.0073 -0.0000 1.0000
vn 1.0000 -0.0000 -0.0047
vn 1.0000 -0.0000 0.0047
vn -1.0000 -0.0000 0.0047
vn -1.0000 -0.0000 -0.0047
vn -0.8660 -0.0000 -0.5000
vn -0.5000 -0.0000 -0.8660
vn 0.5000 -0.0000 -0.8660
vn 0.8660 -0.0000 -0.5000
vn -0.8660 -0.0000 0.5000
vn -0.5000 -0.0000 0.8660
vn 0.5000 -0.0000 0.8660
vn 0.8660 -0.0000 0.5000
vt 0.476389 0.108161
vt 0.476391 0.020663
vt 0.532642 0.020659
vt 0.532644 0.108165
vt 0.527791 0.582114
vt 0.527807 0.669613
vt 0.471556 0.669628
vt 0.471537 0.582123
vt 0.471538 0.580561
vt 0.527789 0.580551
vt 0.527806 0.671175
vt 0.471558 0.671191
vt 0.532642 0.109728
vt 0.476390 0.109723
vt 0.476392 0.019100
vt 0.532640 0.019097
vt 0.532652 0.017502
vt 0.532640 0.017613
vt 0.476392 0.017616
vt 0.476380 0.017505
vt 0.534211 0.017947
vt 0.534153 0.018043
vt 0.474879 0.018046
vt 0.474821 0.017950
vt 0.468379 0.582108
vt 0.468489 0.582121
vt 0.468510 0.669631
vt 0.468399 0.669643
vt 0.468834 0.580552
vt 0.468930 0.580610
vt 0.468949 0.671142
vt 0.468854 0.671200
vt 0.471525 0.578965
vt 0.471538 0.579076
vt 0.470024 0.579506
vt 0.469966 0.579410
vt 0.527802 0.578957
vt 0.527789 0.579067
vt 0.529360 0.579402
vt 0.529302 0.579497
vt 0.530948 0.582099
vt 0.530838 0.582111
vt 0.530398 0.580600
vt 0.530494 0.580542
vt 0.530964 0.669628
vt 0.530854 0.669615
vt 0.530510 0.671184
vt 0.530414 0.671126
vt 0.471546 0.672786
vt 0.471559 0.672676
vt 0.527807 0.672659
vt 0.527819 0.672770
vt 0.469988 0.672341
vt 0.470046 0.672245
vt 0.529320 0.672229
vt 0.529378 0.672325
vt 0.535798 0.020644
vt 0.535688 0.020657
vt 0.535249 0.019146
vt 0.535344 0.019088
vt 0.535802 0.108180
vt 0.535691 0.108168
vt 0.535347 0.109737
vt 0.535251 0.109679
vt 0.532654 0.111323
vt 0.532642 0.111213
vt 0.534155 0.110783
vt 0.534213 0.110878
vt 0.476377 0.111318
vt 0.476389 0.111208
vt 0.474819 0.110873
vt 0.474877 0.110777
vt 0.473234 0.020648
vt 0.473344 0.020660
vt 0.473343 0.108163
vt 0.473232 0.108176
vt 0.473688 0.019092
vt 0.473784 0.019150
vt 0.473782 0.109674
vt 0.473686 0.109732
vt 0.471509 0.578653
vt 0.527817 0.578645
vt 0.527835 0.673082
vt 0.471531 0.673098
vt 0.531261 0.582083
vt 0.531276 0.669643
vt 0.468087 0.669659
vt 0.468067 0.582093
vt 0.468569 0.580394
vt 0.469805 0.579148
vt 0.529518 0.579137
vt 0.530756 0.580381
vt 0.468591 0.671362
vt 0.469830 0.672605
vt 0.529539 0.672587
vt 0.530774 0.671342
vt 0.476364 0.017193
vt 0.532668 0.017190
vt 0.474660 0.017688
vt 0.473424 0.018933
vt 0.472921 0.020633
vt 0.472920 0.108191
vt 0.473424 0.109893
vt 0.474661 0.111137
vt 0.476361 0.111630
vt 0.532670 0.111635
vt 0.534374 0.111141
vt 0.535611 0.109895
vt 0.536114 0.108195
vt 0.536111 0.020629
vt 0.535607 0.018926
vt 0.534368 0.017683
s 1
usemtl playingCards_Mat
f 5/1/1 6/2/1 7/3/1 8/4/1
f 3/5/2 4/6/2 1/7/2 2/8/2
f 10/9/2 9/10/2 3/5/2 2/8/2
f 4/6/2 12/11/2 11/12/2 1/7/2
f 14/13/1 13/14/1 5/1/1 8/4/1
f 16/15/1 15/16/1 7/3/1 6/2/1
f 17/17/3 18/18/4 20/19/5 19/20/6
f 18/18/4 17/17/3 53/21/7 54/22/8
f 19/20/6 20/19/5 58/23/9 57/24/10
f 21/25/11 22/26/12 24/27/13 23/28/14
f 22/26/12 21/25/11 51/29/15 52/30/16
f 23/28/14 24/27/13 66/31/17 65/32/18
f 25/33/19 26/34/20 55/35/21 56/36/22
f 26/34/20 25/33/19 27/37/23 28/38/24
f 28/38/24 27/37/23 60/39/25 59/40/26
f 29/41/27 30/42/28 64/43/29 63/44/30
f 30/42/28 29/41/27 31/45/31 32/46/32
f 32/46/32 31/45/31 77/47/33 78/48/34
f 33/49/35 34/50/36 36/51/37 35/52/38
f 34/50/36 33/49/35 69/53/39 70/54/40
f 35/52/38 36/51/37 74/55/41 73/56/42
f 37/57/43 38/58/44 50/59/45 49/60/46
f 38/58/44 37/57/43 39/61/47 40/62/48
f 40/62/48 39/61/47 67/63/49 68/64/50
f 41/65/51 42/66/52 71/67/53 72/68/54
f 42/66/52 41/65/51 43/69/55 44/70/56
f 44/70/56 43/69/55 76/71/57 75/72/58
f 45/73/59 46/74/60 48/75/61 47/76/62
f 46/74/60 45/73/59 61/77/63 62/78/64
f 47/76/62 48/75/61 80/79/65 79/80/66
f 49/60/46 50/59/45 54/22/8 53/21/7
f 52/30/16 51/29/15 56/36/22 55/35/21
f 57/24/10 58/23/9 62/78/64 61/77/63
f 59/40/26 60/39/25 63/44/30 64/43/29
f 65/32/18 66/31/17 70/54/40 69/53/39
f 68/64/50 67/63/49 72/68/54 71/67/53
f 73/56/42 74/55/41 78/48/34 77/47/33
f 75/72/58 76/71/57 79/80/66 80/79/65
f 25/33/19 81/81/67 82/82/68 27/37/23
f 89/83/69 90/84/70 33/49/35 35/52/38
f 29/41/27 85/85/71 86/86/72 31/45/31
f 23/28/14 93/87/73 94/88/74 21/25/11
f 94/88/74 95/89/75 51/29/15 21/25/11
f 95/89/75 96/90/76 56/36/22 51/29/15
f 96/90/76 81/81/67 25/33/19 56/36/22
f 82/82/68 83/91/77 60/39/25 27/37/23
f 83/91/77 84/92/78 63/44/30 60/39/25
f 84/92/78 85/85/71 29/41/27 63/44/30
f 23/28/14 65/32/18 92/93/79 93/87/73
f 65/32/18 69/53/39 91/94/80 92/93/79
f 69/53/39 33/49/35 90/84/70 91/94/80
f 35/52/38 73/56/42 88/95/81 89/83/69
f 73/56/42 77/47/33 87/96/82 88/95/81
f 77/47/33 31/45/31 86/86/72 87/96/82
f 11/12/2 12/11/2 36/51/37 34/50/36
f 28/38/24 9/10/2 10/9/2 26/34/20
f 66/31/17 11/12/2 34/50/36 70/54/40
f 2/8/2 1/7/2 24/27/13 22/26/12
f 26/34/20 10/9/2 52/30/16 55/35/21
f 64/43/29 9/10/2 28/38/24 59/40/26
f 32/46/32 4/6/2 3/5/2 30/42/28
f 78/48/34 74/55/41 36/51/37 12/11/2
f 18/18/4 15/16/1 16/15/1 20/19/5
f 44/70/56 13/14/1 14/13/1 42/66/52
f 80/79/65 13/14/1 44/70/56 75/72/58
f 48/75/61 46/74/60 6/2/1 5/1/1
f 20/19/5 16/15/1 62/78/64 58/23/9
f 50/59/45 15/16/1 18/18/4 54/22/8
f 8/4/1 7/3/1 38/58/44 40/62/48
f 42/66/52 14/13/1 68/64/50 71/67/53
f 30/42/28 3/5/2 9/10/2 64/43/29
f 52/30/16 10/9/2 2/8/2 22/26/12
f 1/7/2 11/12/2 66/31/17 24/27/13
f 78/48/34 12/11/2 4/6/2 32/46/32
f 48/75/61 5/1/1 13/14/1 80/79/65
f 68/64/50 14/13/1 8/4/1 40/62/48
f 38/58/44 7/3/1 15/16/1 50/59/45
f 62/78/64 16/15/1 6/2/1 46/74/60
f 82/97/68 81/98/67 17/17/3 19/20/6
f 19/20/6 57/24/10 83/99/77 82/97/68
f 57/24/10 61/77/63 84/100/78 83/99/77
f 61/77/63 45/73/59 85/101/71 84/100/78
f 86/102/72 85/101/71 45/73/59 47/76/62
f 87/103/82 86/102/72 47/76/62 79/80/66
f 88/104/81 87/103/82 79/80/66 76/71/57
f 89/105/69 88/104/81 76/71/57 43/69/55
f 41/65/51 90/106/70 89/105/69 43/69/55
f 91/107/80 90/106/70 41/65/51 72/68/54
f 92/108/79 91/107/80 72/68/54 67/63/49
f 93/109/73 92/108/79 67/63/49 39/61/47
f 94/110/74 93/109/73 39/61/47 37/57/43
f 37/57/43 49/60/46 95/111/75 94/110/74
f 49/60/46 53/21/7 96/112/76 95/111/75
f 53/21/7 17/17/3 81/98/67 96/112/76
